<svg width="100" height="100" viewBox="0 0 100 100" fill="none" xmlns="http://www.w3.org/2000/svg">
<rect width="100" height="100" fill="white"/>
<rect x="4" y="15.42" width="10" height="50" fill="black"/>
<rect x="54" y="15.42" width="10" height="70" fill="black"/>
<path d="M9 15.4199C9.01393 21.6003 23 59.92 33 59.92C43 59.9199 59 24.42 59 15.4199" stroke="black" stroke-width="10"/>
<path d="M72.3569 36.7776C69.793 35.752 66.8832 36.9991 65.8576 39.563C64.8321 42.1269 66.0791 45.0368 68.6431 46.0623L72.3569 36.7776ZM63.9193 17.3144C64.4602 14.3394 66.816 12.1318 70.6222 11.3064C74.5014 10.4651 78.893 11.3679 81.8215 13.7796L88.1785 6.06029C82.607 1.47197 74.9986 0.124801 68.5028 1.53353C61.934 2.95809 55.5398 7.50047 54.0807 15.5255L63.9193 17.3144ZM81.8215 13.7796C87.751 18.6628 87.6123 28.609 82.0884 33.7647L88.9116 41.0752C98.3877 32.2309 99.249 15.1771 88.1785 6.06029L81.8215 13.7796ZM82.0884 33.7647C79.2954 36.3715 76.7139 36.9722 74.9655 37.0499C74.0482 37.0906 73.3002 36.9874 72.8144 36.8856C72.5736 36.8351 72.4051 36.7867 72.3222 36.7609C72.2811 36.7481 72.2621 36.7412 72.2671 36.743C72.2696 36.7439 72.2782 36.747 72.2931 36.7526C72.3005 36.7554 72.3095 36.7589 72.3202 36.763C72.3255 36.7651 72.3312 36.7673 72.3373 36.7698C72.3404 36.771 72.3436 36.7722 72.3468 36.7735C72.3485 36.7742 72.351 36.7752 72.3518 36.7755C72.3544 36.7765 72.3569 36.7776 70.5 41.4199C68.6431 46.0623 68.6457 46.0634 68.6484 46.0644C68.6493 46.0648 68.652 46.0659 68.6539 46.0666C68.6576 46.0681 68.6614 46.0696 68.6654 46.0712C68.6734 46.0744 68.6818 46.0777 68.6908 46.0812C68.7087 46.0881 68.7286 46.0958 68.7504 46.1041C68.7941 46.1206 68.8457 46.1397 68.905 46.1609C69.0235 46.2032 69.173 46.2539 69.3516 46.3095C69.7081 46.4204 70.1842 46.5516 70.7637 46.6731C71.9185 46.915 73.5143 47.1242 75.4095 47.04C79.2861 46.8677 84.2046 45.4684 88.9116 41.0752L82.0884 33.7647Z" fill="black"/>
<path d="M50.5006 93.4199C55.0004 91.9199 59.0015 88.4198 59.0015 85.4197L54.5009 77.92C54.5009 77.92 47.5016 75.4199 43.5008 76.42C39.5 77.42 35.7499 80.4199 34.0005 83.9199C32.7509 86.4201 33.0004 89.9199 37.5006 92.4199C42.0008 94.9199 46.0008 94.9199 50.5006 93.4199Z" stroke="black" stroke-width="10"/>
<ellipse cx="47" cy="82.42" rx="11" ry="10" fill="black"/>
<rect x="86" y="49.42" width="10" height="36" fill="black"/>
<rect x="54.7422" y="50.3132" width="10" height="46.1358" transform="rotate(-30 54.7422 50.3132)" fill="black"/>
<path d="M82 87.42C84.5 91.92 91 88.42 91 85.42" stroke="black" stroke-width="10"/>
</svg>
